<svg version="1.1" viewBox="0 0 128 128" xmlns="http://www.w3.org/2000/svg">
  <path d="m120 96-55 32-55-32 3e-7 -64 55-32 55 32z" style="fill:#272727;opacity:.99"/>
  <g style="fill:#e6b900" aria-label="eCorpus">
    <path d="m39 96q-9.5 0-15-6.3-5.3-6.3-5.3-18 0-12 5-18t14-6.2q8.4 0 13 5.2 4.9 5.2 4.9 16v4h-29q0.17 9.5 3.4 14 3.3 4.3 9.6 4.3 4.5 0 7.6-1.8 3.2-1.9 4.8-4.3 0.61 0.26 1.1 1 0.52 0.78 0.52 1.9 0 1.7-1.7 3.7t-5 3.5q-3.4 1.4-8.6 1.4zm8.4-28q0-7-2.2-11-2.1-4.3-7.3-4.3-4.8 0-7.5 4-2.6 3.9-3 11z" style="fill:#e6b900"/>
    <path d="m92 96q-8.6 0-15-4-5.9-4-9-11-3-7.2-3-17 0-9.4 3.1-17 3.2-7.2 9.4-11 6.3-4.1 15-4.1 8.9 0 13 2.8t4.3 7q0 2.8-2.2 4.4-2.2 1.7-5.4 1.7 0-2.7-0.96-5.2-0.96-2.6-3.2-4.3-2.2-1.7-6-1.7-9.8 0-14 7.1-4.1 7-4.1 20 0 7.7 1.8 14 1.9 5.9 5.9 9.2 4 3.3 10 3.3 6.3 0 9.9-2.2 3.7-2.3 5.8-5.2 0.7 0.43 1.1 1.3 0.52 0.78 0.52 2.1 0 2.2-2 4.4-2 2.3-6.2 3.8-4.1 1.5-11 1.5z" style="fill:#e6b900"/>
  </g>
</svg>
