<svg version="1.1" viewBox="0 0 390 128" xmlns="http://www.w3.org/2000/svg">
  <path d="m117 96-55 32-55-32 2e-7 -64 55-32 55 32z" style="fill:#272727;opacity:.99"/>
  <g transform="translate(-3.4 1.5)" style="fill:#e6b900" aria-label="eCorpus">
    <path d="m44 94q-9.5 0-15-6.3-5.3-6.3-5.3-18 0-12 5-18t14-6.2q8.4 0 13 5.2 4.9 5.2 4.9 16v4h-29q0.17 9.5 3.4 14 3.3 4.3 9.6 4.3 4.5 0 7.6-1.8 3.2-1.9 4.8-4.3 0.61 0.26 1.1 1 0.52 0.78 0.52 1.9 0 1.7-1.7 3.7t-5 3.5q-3.4 1.4-8.6 1.4zm8.4-28q0-7-2.2-11-2.1-4.3-7.3-4.3-4.8 0-7.5 4-2.6 3.9-3 11z" style="fill:#e6b900"/>
    <path d="m97 94q-8.6 0-15-4-5.9-4-9-11-3-7.2-3-17 0-9.4 3.1-17 3.2-7.2 9.4-11 6.3-4.1 15-4.1 8.9 0 13 2.8t4.3 7q0 2.8-2.2 4.4-2.2 1.7-5.4 1.7 0-2.7-0.96-5.2-0.96-2.6-3.2-4.3-2.2-1.7-6-1.7-9.8 0-14 7.1-4.1 7-4.1 20 0 7.7 1.8 14 1.9 5.9 5.9 9.2 4 3.3 10 3.3 6.3 0 9.9-2.2 3.7-2.3 5.8-5.2 0.7 0.43 1.1 1.3 0.52 0.78 0.52 2.1 0 2.2-2 4.4-2 2.3-6.2 3.8-4.1 1.5-11 1.5z" style="fill:#e6b900"/>
    <path d="m144 94q-9.4 0-15-6-5.4-6-5.4-18 0-12 5.1-18 5.2-6 15-6 9.4 0 15 6 5.4 5.9 5.4 18 0 12-5.2 18-5.1 6-15 6zm0.17-4.5q6.5 0 9.1-5 2.7-5 2.7-15t-2.7-15-9.2-4.9q-6.5 0-9.2 4.9-2.6 4.9-2.6 15t2.7 15q2.7 5 9.2 5z" style="fill:#e6b900"/>
    <path d="m172 93v-3.7h0.26q3 0 5-1 2.1-1.1 2.1-5.2v-27q0-3.8-2.2-4.9-2.1-1-5-1h-0.26v-3.7h13l1.7 8.6h0.43q1.1-2.6 2.4-4.8 1.3-2.2 3.5-3.4 2.2-1.3 6-1.3 4.8 0 7 1.7 2.3 1.7 2.3 4.7 0 2.7-1.9 4.4-1.8 1.7-6.2 1.7 0-3.6-1-5.1-1-1.7-3.6-1.7-2.4 0-4.1 1.9-1.7 1.9-2.6 4.9-0.96 3-1.4 6.2-0.43 3.1-0.43 5.7v14q0 3.8 2.1 4.9 2.2 0.96 5 0.96h2.4v3.7z" style="fill:#e6b900"/>
    <path d="m211 114v-3.7h0.7q3 0 5-1.1 2.1-1 2.1-5.1v-48q0-3.8-2.2-4.9-2.1-1-5-1h-1.1v-3.7h15l0.87 7.8h0.35q2-4 5.1-6.3 3.1-2.3 8.2-2.3 8.6 0 13 5.8 4.6 5.7 4.6 18 0 13-4.6 18-4.5 5.8-13 5.8-5 0-8.3-2.1-3.1-2.2-5-5.6h-0.35q0.17 2.5 0.26 5.4 0.087 2.8 0.087 4.4v8.3q0 3.8 2.1 4.8 2.2 1 5 1h0.26v3.7zm28-26q5.7 0 8.2-4.8 2.5-4.9 2.5-14 0-9.3-2.5-14-2.4-4.6-8.3-4.6-6.8 0-9.3 4.6-2.5 4.5-2.5 14 0 9 2.5 14 2.5 4.8 9.4 4.8z" style="fill:#e6b900"/>
    <path d="m287 94q-6.9 0-11-4-3.7-4.1-3.7-13v-21q0-3.8-2.2-4.9-2.1-1-5-1h-0.26v-3.7h16v30q0 5.7 1.9 8.8 1.9 3.1 7.2 3.1 5.7 0 8.3-3.8 2.6-3.9 2.6-10v-18q0-4.1-2.1-5.1-2.1-1.1-5-1.1h-0.26v-3.7h16v37q0 3.8 2.1 4.9 2.2 0.96 5 0.96h0.26v3.7h-14l-1.1-7h-0.43q-2.7 4.9-6.3 6.4-3.6 1.5-7.8 1.5z" style="fill:#e6b900"/>
    <path d="m337 94q-6.5 0-10-2.3-3.9-2.3-3.9-6.9 0-2.3 0.96-3.7t2.2-1.8q1.3-0.52 2.3-0.52 0 4.5 2 7.8 2.1 3.2 7.4 3.2 4.6 0 7-2.2 2.5-2.3 2.5-5.7 0-2.2-0.96-3.6-0.87-1.4-3.2-2.7-2.3-1.4-6.5-3.2-4.4-2-7.4-3.8-2.9-1.9-4.3-4.3-1.4-2.5-1.4-6.3 0-5.9 4.4-9 4.5-3.2 12-3.2 6.3 0 9.5 2.3 3.2 2.3 3.2 5.7 0 2.3-1.7 3.8-1.6 1.4-4.6 1.4 0-4.3-1.8-6.8t-5.7-2.4q-4.4 0-6.3 2-1.9 1.9-1.9 5 0 3.3 2.4 5.1 2.5 1.7 8.3 4.1 4.6 1.9 7.5 3.8t4.2 4.4q1.4 2.5 1.4 6.2 0 6.8-4.7 10-4.7 3.4-12 3.4z" style="fill:#e6b900"/>
  </g>
</svg>
