<svg width="128" height="128" version="1.1" viewBox="0 0 34 34" xmlns="http://www.w3.org/2000/svg">
  <rect width="34" height="34" ry="8" style="fill:#e6b900"/>
  <path d="m17 34-15-8-0 -17 15-9 15 8 0 17z" style="fill:#272727;stroke-width:0"/>
  <g style="stroke-width:.3" aria-label="eC">
    <path d="m10 25q-2.4 0-3.8-1.6-1.3-1.6-1.3-4.4 0-3.1 1.3-4.6t3.6-1.6q2.1 0 3.3 1.3 1.2 1.3 1.2 3.9v1h-7.3q0.044 2.4 0.86 3.5 0.84 1.1 2.4 1.1 1.1 0 1.9-0.46 0.81-0.48 1.2-1.1 0.15 0.066 0.29 0.26t0.13 0.48q0 0.44-0.42 0.95t-1.3 0.88q-0.86 0.35-2.2 0.35zm2.1-7.2q0-1.8-0.55-2.8-0.53-1.1-1.8-1.1-1.2 0-1.9 1-0.66 0.99-0.77 2.9z" style="fill:#e6b900;stroke-width:.3"/>
    <path d="m24 25q-2.2 0-3.7-1t-2.3-2.8q-0.75-1.8-0.75-4.3 0-2.4 0.79-4.2 0.81-1.8 2.4-2.8 1.6-1 3.9-1 2.2 0 3.3 0.7 1.1 0.7 1.1 1.8 0 0.7-0.55 1.1t-1.4 0.42q0-0.68-0.24-1.3-0.24-0.66-0.81-1.1-0.55-0.44-1.5-0.44-2.5 0-3.5 1.8-1 1.8-1 5.1 0 2 0.46 3.5 0.48 1.5 1.5 2.3t2.6 0.84 2.5-0.55q0.92-0.57 1.5-1.3 0.18 0.11 0.29 0.33 0.13 0.2 0.13 0.53 0 0.55-0.51 1.1t-1.6 0.97q-1 0.37-2.7 0.37z" style="fill:#e6b900;stroke-width:.3"/>
  </g>
</svg>
